<svg width="523" height="235" viewBox="0 0 523 235" fill="none" xmlns="http://www.w3.org/2000/svg">
<g clip-path="url(#clip0_53_6)">
<path d="M304.753 229.431V165.074H288.99V129.321H342.86V165.074H327.097V229.431H304.761H304.753Z" fill="#7879F1" stroke="black" stroke-width="0.56" stroke-miterlimit="10"/>
<path d="M370.051 149.58C382.728 149.58 388.839 156.131 388.839 175.802V229.431H370.777V201.545H369.136C364.272 201.545 360.862 202.262 360.862 206.43C360.862 210.009 363.683 210.718 367.828 210.718H368.487L370.128 228.833C367.563 230.618 362.836 231.814 358.434 231.814C346.869 231.814 341.219 223.35 341.219 209.411C341.219 193.678 349.561 181.883 364.931 181.883H370.777V181.644C370.777 176.16 370.453 175.443 366.837 175.443C360.46 175.443 351.724 178.663 346.142 181.644L344.826 157.566C351.921 152.442 362.759 149.58 370.051 149.58Z" fill="#7879F1" stroke="black" stroke-width="0.56" stroke-miterlimit="10"/>
<path d="M391.464 129.321H409.525V229.431H391.464V129.321Z" fill="#7879F1" stroke="black" stroke-width="0.56" stroke-miterlimit="10"/>
<path d="M412.158 129.321H430.22V177.945L440.401 151.963H461.095L444.675 190.936L462.412 229.431H441.059L430.22 204.876V229.431H412.158V129.321Z" fill="#7879F1" stroke="black" stroke-width="0.56" stroke-miterlimit="10"/>
<path d="M0.324829 176.997H48.6295V163.528H82.0265V176.997H130.331V193.089H0.324829V176.997ZM26.2081 124.077H61.0412C57.5792 127.177 54.7157 129.919 52.4504 132.78C62.9474 130.517 73.6836 129.321 85.1294 129.321C113.398 129.321 125.801 136.111 125.801 151.485V172.223L88.2238 173.419V162.571C88.2238 156.371 84.7618 154.346 74.1452 154.346C64.127 154.346 52.194 155.542 43.0135 157.327C42.5348 161.974 42.4151 167.218 42.4151 173.419L4.83817 172.223C4.83817 140.16 9.96696 131.226 26.191 124.068L26.2081 124.077ZM125.211 196.659V234.675H5.45362V212.007C5.45362 203.535 12.3348 196.659 20.8144 196.659H125.211ZM91.8139 219.182V211.555H42.3809C40.432 211.555 38.8591 213.135 38.8591 215.074V219.182H91.8225H91.8139Z" fill="#7879F1" stroke="black" stroke-width="0.76" stroke-miterlimit="10"/>
<path d="M150.692 124.555H190.594C187.372 129.082 184.867 133.139 182.722 137.307C188.329 135.992 193.817 135.283 199.655 135.283C220.41 135.283 228.043 142.671 228.043 162.46V191.304L196.433 192.499V170.216C196.433 165.211 193.928 162.947 187.252 162.947C184.269 162.947 180.217 163.665 175.918 165.091C175.319 172.599 175.08 181.422 175.08 192.499L135.776 191.304C135.776 149.111 139.597 137.196 150.684 124.564L150.692 124.555ZM265.74 196.07V234.684H231.744V218.114H151.829V196.061H265.74V196.07ZM244.737 124.085H265.74V193.089H232.343V136.47C232.343 129.628 237.89 124.085 244.737 124.085Z" fill="#7879F1" stroke="black" stroke-width="0.76" stroke-miterlimit="10"/>
<path d="M164.113 154.584C167.885 140.89 166.128 128.465 160.188 126.831C154.248 125.197 146.375 134.974 142.602 148.668C138.83 162.362 140.587 174.787 146.527 176.421C152.467 178.055 160.34 168.278 164.113 154.584Z" fill="white" stroke="black" stroke-width="0.76" stroke-miterlimit="10"/>
<path d="M32.0721 152.057C26.3535 162.862 17.3353 162.776 14.2068 160.59C12.6425 159.497 9.53957 152.561 15.2582 141.748C20.9768 130.935 29.2512 125.52 33.9355 127.997C38.6198 130.474 37.7907 141.244 32.0721 152.049V152.057Z" fill="white" stroke="black" stroke-width="0.65" stroke-miterlimit="10"/>
<path d="M522.675 87.6659V97.0612C522.675 106.969 514.64 114.997 504.724 114.997H494.8L463.694 132.08L478.32 114.997H403.003C393.088 114.997 385.053 106.969 385.053 97.0612V87.6659C385.053 77.7583 393.088 69.7296 403.003 69.7296H504.724C514.64 69.7296 522.675 77.7583 522.675 87.6659Z" fill="#A5A6F6" stroke="black" stroke-width="0.75" stroke-miterlimit="10"/>
<path d="M473.071 3.16025L463.728 69.7296L457.377 114.997H452.539L459.531 69.7296L469.874 2.69049C469.994 1.88762 470.678 1.31537 471.464 1.31537C471.55 1.31537 471.627 1.32391 471.704 1.33245C472.584 1.46911 473.199 2.28051 473.071 3.16025Z" fill="#CED0EF" stroke="#32333A" stroke-width="0.75" stroke-miterlimit="10"/>
<path d="M466.31 2.16092L456.821 69.7211L450.47 114.989H445.615L452.599 69.7211L463.104 1.68262C463.232 0.888294 463.916 0.31604 464.703 0.31604C464.788 0.31604 464.865 0.324581 464.942 0.333122C465.822 0.461239 466.429 1.28118 466.31 2.16092Z" fill="#CED0EF" stroke="#32333A" stroke-width="0.75" stroke-miterlimit="10"/>
<path d="M434.468 114.664L431.998 69.7125L430.955 50.6317C430.921 49.9996 430.511 49.4701 429.904 49.2736C424.296 47.4288 419.988 40.519 419.424 32.4647C419.082 27.5878 420.108 22.9158 422.305 19.3029C424.484 15.7327 427.562 13.6316 430.964 13.3924C431.178 13.3754 431.4 13.3668 431.613 13.3668C438.469 13.3668 444.367 20.9599 445.051 30.6626C445.615 38.7083 442.307 46.1561 436.999 48.7697C436.435 49.0516 436.101 49.6324 436.144 50.2559L437.802 69.7467L441.632 114.656H434.46L434.468 114.664Z" fill="#CED0EF"/>
<path d="M431.613 13.7C438.289 13.7 444.051 21.1563 444.718 30.6882C445.273 38.6058 442.042 45.9255 436.853 48.4793C436.17 48.821 435.768 49.5299 435.819 50.2901L437.477 69.7809L441.281 114.331H434.785L432.331 69.6869L431.289 50.6061C431.246 49.8374 430.742 49.1883 430.015 48.9491C424.527 47.1384 420.313 40.3482 419.757 32.4306C419.415 27.622 420.424 23.0183 422.595 19.4652C424.715 15.989 427.699 13.9476 430.989 13.717C431.195 13.7 431.408 13.6914 431.613 13.6914M431.613 13.0252C431.391 13.0252 431.169 13.0252 430.947 13.0508C423.681 13.5548 418.381 22.2496 419.099 32.4733C419.689 40.8948 424.185 47.7192 429.81 49.5726C430.289 49.7263 430.605 50.1534 430.63 50.6317L431.673 69.7125L434.161 114.98H442.008L438.144 69.7125L436.486 50.2217C436.452 49.7434 436.708 49.2822 437.153 49.0601C442.469 46.438 445.974 39.0585 445.384 30.6284C444.692 20.7293 438.597 13.0252 431.613 13.0252Z" fill="#32333A"/>
<path d="M428.22 16.3477C425.732 17.8936 420.766 24.103 422.236 26.597C423.322 28.4419 428.912 25.9735 430.784 24.8888C434.81 22.5656 434.845 16.5783 432.494 15.4936C430.955 14.7846 428.716 16.0402 428.22 16.3477Z" fill="white" stroke="black" stroke-width="0.35" stroke-miterlimit="10"/>
<path d="M307.975 132.336C294.948 133.515 293.444 135.12 292.811 135.974C290.683 138.819 290.409 143.704 292.657 146.369C297.213 151.758 312.395 148.402 318.199 140.023C318.695 139.306 321.379 135.436 320.037 133.199C319.404 132.148 317.865 131.439 307.975 132.336Z" fill="white" stroke="black" stroke-width="0.39" stroke-miterlimit="10"/>
</g>
<defs>
<clipPath id="clip0_53_6">
<rect width="523" height="235" fill="white"/>
</clipPath>
</defs>
</svg>
