<?xml version="1.0" encoding="UTF-8"?><svg id="Layer_2" xmlns="http://www.w3.org/2000/svg" viewBox="0 0 130.58 108.42"><defs><style>.cls-1{fill:#fff;stroke:#000;}.cls-1,.cls-2{stroke-linecap:round;stroke-linejoin:round;}.cls-3{fill:#d72c65;}.cls-2{fill:none;stroke:#d72c65;stroke-width:2px;}</style></defs><g id="Layer_1-2"><path class="cls-1" d="m82.39,88.91c8.39-6.08,53.77-38.92,47-69-.42-1.87-2.36-10.48-9.59-14.75-8.2-4.85-20.38-2.48-31.41,5.75-.43-.52-11.08-12.78-26-10-9.17,1.71-14.5,8.08-16,10-6.58-2.99-14.25-2.23-20,2-8.36,6.15-8.04,16.22-8,17-7.96.84-14.67,5.97-17,13-2.93,8.86,1.54,19.38,11,24-1.98,1.6-7.34,6.35-8.85,14.17-.13.68-1.84,10.26,3.85,17.83,6.9,9.18,19.94,9.06,27,9,6.94-.06,23.64-1.37,48-19Z"/><path class="cls-2" d="m60.39,83.91c-7.24,6.6-14.26,8.72-17.88,9.5-9.07,1.97-23.24,1.34-26.12-5.5-.99-2.34-.35-4.69-.13-5.37,3.57-11.32,31.51-11.62,33.94-11.63.08,0,.15,0,.19,0-8-31,0-57,14-58s20,21,12,41c10-25,28-43,36-36,11.29,9.88,3,31-17,41"/><path class="cls-2" d="m43.39,27.91c21.5,10.5,33,34,33,39"/><path class="cls-2" d="m24.89,48.41c14,1,36,7,43.5,26.5"/><circle class="cls-3" cx="16.89" cy="46.41" r="3"/><circle class="cls-3" cx="35.89" cy="24.41" r="3"/></g></svg>